<?xml version="1.0" standalone="no"?>
<!DOCTYPE svg PUBLIC "-//W3C//DTD SVG 20010904//EN"
 "http://www.w3.org/TR/2001/REC-SVG-20010904/DTD/svg10.dtd">
<svg version="1.0" xmlns="http://www.w3.org/2000/svg"
 width="2796.000000pt" height="2796.000000pt" viewBox="0 0 2796.000000 2796.000000"
 preserveAspectRatio="xMidYMid meet">
<metadata>
Created by potrace 1.11, written by Peter Selinger 2001-2013
</metadata>
<g transform="translate(0.000000,2796.000000) scale(0.100000,-0.100000)"
fill="#000000" stroke="none">
<path d="M3015 26903 c-788 -70 -1488 -444 -1975 -1054 -487 -610 -698 -1413
-574 -2184 139 -865 668 -1610 1444 -2032 270 -147 620 -260 955 -309 183 -27
582 -25 770 4 507 78 962 276 1355 589 119 94 342 318 440 443 339 427 550
947 597 1470 12 129 8 514 -6 615 -72 528 -263 985 -582 1395 -91 118 -324
354 -444 450 -224 180 -534 355 -792 449 -209 76 -454 132 -678 156 -111 12
-417 17 -510 8z"/>
<path d="M13178 23474 c-2 -2 -76 -4 -163 -5 -88 -1 -221 -5 -295 -10 -1653
-105 -3287 -606 -4870 -1492 -550 -307 -1186 -730 -1699 -1131 -265 -206 -636
-516 -827 -691 -18 -17 -207 -190 -244 -225 -153 -141 -590 -584 -760 -770
-179 -195 -203 -222 -306 -340 -1697 -1956 -2931 -4375 -3520 -6903 -195 -838
-341 -1740 -414 -2552 -5 -66 -12 -140 -15 -165 -2 -25 -7 -88 -10 -140 -3
-52 -8 -108 -10 -125 -2 -16 -7 -88 -10 -160 -4 -71 -8 -146 -10 -165 -26
-234 -25 -1613 0 -1840 2 -19 6 -89 10 -155 4 -66 8 -133 10 -150 2 -16 7 -70
10 -120 4 -49 13 -151 21 -225 8 -74 16 -160 20 -190 3 -30 16 -140 30 -245
191 -1458 602 -2716 1171 -3584 276 -421 567 -723 818 -848 273 -136 442 -63
514 223 43 173 46 230 47 1079 1 721 7 1178 19 1375 2 36 7 117 10 180 3 63 7
142 10 175 2 33 7 98 10 145 18 268 74 828 110 1110 240 1862 737 3808 1395
5455 607 1521 1493 2983 2521 4160 1542 1766 3423 2993 5228 3410 482 111 881
159 1331 158 1338 -2 2411 -508 3287 -1551 213 -254 383 -536 523 -867 44
-102 120 -309 120 -324 0 -5 -55 -44 -122 -88 -362 -231 -774 -541 -1133 -853
-371 -321 -775 -725 -1096 -1095 -540 -623 -1017 -1311 -1424 -2055 -93 -171
-333 -660 -417 -850 -547 -1239 -876 -2549 -997 -3960 -37 -429 -46 -643 -46
-1100 0 -295 10 -714 19 -770 2 -14 7 -74 11 -135 3 -60 8 -128 10 -150 2 -22
9 -92 15 -155 10 -106 36 -320 45 -380 2 -14 7 -45 10 -70 72 -528 231 -1143
413 -1600 307 -769 769 -1398 1150 -1567 118 -52 186 -63 376 -58 237 5 382
33 613 119 1066 394 2373 1518 3519 3026 1211 1592 2211 3518 2864 5516 114
349 121 372 194 624 262 907 457 1873 546 2695 11 105 23 210 26 234 l6 43 81
-7 c612 -53 1160 -313 1592 -756 292 -299 466 -590 599 -996 114 -349 191
-783 213 -1193 13 -247 7 -750 -12 -922 -3 -24 -9 -97 -15 -163 -30 -336 -83
-706 -171 -1175 -228 -1219 -595 -2398 -1135 -3652 -269 -624 -694 -1470 -992
-1972 -254 -430 -347 -664 -359 -902 -6 -130 10 -224 56 -319 36 -75 71 -113
158 -169 289 -187 700 -114 1313 231 774 437 1660 1308 2402 2365 532 755
1043 1698 1438 2648 441 1062 744 2177 864 3180 60 497 69 659 70 1155 1 518
-17 795 -80 1224 -186 1275 -646 2298 -1448 3221 -122 140 -425 446 -559 563
-858 753 -1850 1253 -2942 1481 -253 52 -586 96 -850 111 -61 3 -137 8 -170
10 -33 2 -123 4 -201 4 l-141 1 -42 148 c-305 1049 -760 1930 -1430 2766 -353
440 -734 838 -1126 1177 -739 638 -1510 1108 -2390 1459 -791 316 -1596 505
-2459 580 -177 15 -242 19 -401 25 -212 8 -503 14 -507 9z m8792 -6820 c534
-32 1148 -165 1670 -359 1445 -540 2574 -1598 3168 -2970 473 -1091 604 -2418
386 -3890 -151 -1017 -485 -2157 -928 -3162 -410 -932 -951 -1848 -1552 -2629
-452 -589 -1074 -1207 -1562 -1553 -238 -168 -497 -305 -718 -380 -147 -50
-157 -51 -143 -14 21 58 184 373 381 738 478 884 806 1581 1133 2404 602 1518
988 3091 1111 4531 19 219 27 921 13 1115 -30 435 -92 800 -195 1160 -165 572
-403 988 -795 1386 -213 216 -428 381 -701 538 -369 212 -860 363 -1285 396
l-92 8 6 41 c9 62 9 889 0 1071 -12 260 -41 629 -62 790 -10 80 -36 281 -41
315 -30 201 -67 416 -81 463 -5 20 -17 20 287 1z m-4550 -1329 c0 -3 14 -81
30 -173 69 -383 107 -746 129 -1232 8 -181 6 -833 -3 -945 -3 -38 -8 -124 -11
-190 -6 -110 -27 -401 -40 -535 -13 -131 4 -107 -263 -376 -1306 -1315 -2214
-2934 -2801 -4996 -286 -1002 -513 -2337 -566 -3323 -4 -60 -8 -130 -11 -155
-3 -25 -7 -319 -10 -655 -6 -815 -8 -937 -20 -958 -9 -16 -19 -9 -83 58 -39
42 -111 129 -159 193 -419 561 -696 1272 -842 2157 -12 72 -23 141 -25 155
-14 80 -60 500 -70 635 -3 44 -8 98 -10 120 -5 51 -15 247 -24 468 -8 195 -6
786 3 928 3 52 8 144 11 204 3 61 8 133 10 160 2 28 7 82 10 120 3 39 7 90 10
115 2 25 7 72 10 105 31 323 101 786 176 1160 422 2103 1427 4069 2829 5529
124 129 395 396 495 486 39 35 88 80 110 100 241 218 581 486 920 723 169 119
195 135 195 122z m-85 -4461 c-359 -2019 -1060 -4171 -2040 -6258 -190 -405
-753 -1517 -783 -1546 -7 -7 6 312 23 554 148 2065 736 4150 1615 5726 332
595 646 1054 1054 1538 67 79 130 154 140 167 11 14 21 23 23 22 1 -2 -13 -93
-32 -203z"/>
</g>
</svg>
