<svg xmlns="http://www.w3.org/2000/svg" width="51.162" height="38.971" viewBox="0 0 51.162 38.971">
  <g id="email" transform="translate(0 -61)">
    <g id="Group_17" data-name="Group 17" transform="translate(0 61)">
      <path id="Path_44" data-name="Path 44" d="M46.665,61H4.5A4.5,4.5,0,0,0,0,65.5V95.474a4.5,4.5,0,0,0,4.5,4.5H46.665a4.5,4.5,0,0,0,4.5-4.5V65.5A4.5,4.5,0,0,0,46.665,61Zm-.621,3L25.676,84.366,5.132,64ZM3,94.854V66.1L17.435,80.417Zm2.12,2.12L19.564,82.527l5.062,5.018a1.5,1.5,0,0,0,2.115,0l4.936-4.936L46.045,96.973Zm43.047-2.12L33.8,80.486,48.164,66.117Z" transform="translate(0 -61)" fill="#ed1b24"/>
    </g>
  </g>
</svg>
