<svg xmlns="http://www.w3.org/2000/svg" xmlns:xlink="http://www.w3.org/1999/xlink" width="72.405" height="73.278" viewBox="0 0 72.405 73.278">
  <defs>
    <clipPath id="clip-path">
      <ellipse id="Ellipse_270" data-name="Ellipse 270" cx="36.203" cy="36.639" rx="36.203" ry="36.639" fill="#ed1b24"/>
    </clipPath>
  </defs>
  <g id="Indra" clip-path="url(#clip-path)">
    <path id="social-1_logo-youtube" d="M55.273,17.5s-.523-3.836-2.267-5.579a8.16,8.16,0,0,0-5.58-2.441C39.581,8.959,27.9,8.959,27.9,8.959h0s-11.682,0-19.529.523a8.16,8.16,0,0,0-5.58,2.441C1.046,13.667.523,17.5.523,17.5A90.636,90.636,0,0,0,0,26.569v4.184a90.637,90.637,0,0,0,.523,9.066S1.046,43.655,2.79,45.4c2.092,2.267,4.882,2.092,6.1,2.441,4.533.349,19.006.523,19.006.523s11.682,0,19.529-.523a8.16,8.16,0,0,0,5.58-2.441c1.744-1.743,2.267-5.579,2.267-5.579a90.636,90.636,0,0,0,.523-9.066V26.569A90.635,90.635,0,0,0,55.273,17.5ZM22.144,35.983V20.292l15,7.846Z" transform="translate(8.304 7.978)" fill="#ed1b24"/>
  </g>
</svg>
