<svg id="instagram" xmlns="http://www.w3.org/2000/svg" width="46" height="46" viewBox="0 0 46 46">
  <g id="Group_12" data-name="Group 12">
    <g id="Group_11" data-name="Group 11">
      <path id="Path_42" data-name="Path 42" d="M31.625,0H14.375A14.377,14.377,0,0,0,0,14.375v17.25A14.377,14.377,0,0,0,14.375,46h17.25A14.377,14.377,0,0,0,46,31.625V14.375A14.377,14.377,0,0,0,31.625,0ZM41.688,31.625A10.074,10.074,0,0,1,31.625,41.688H14.375A10.074,10.074,0,0,1,4.313,31.625V14.375A10.074,10.074,0,0,1,14.375,4.313h17.25A10.074,10.074,0,0,1,41.688,14.375Z" fill="#ed1b24"/>
    </g>
  </g>
  <g id="Group_14" data-name="Group 14" transform="translate(11.5 11.5)">
    <g id="Group_13" data-name="Group 13">
      <path id="Path_43" data-name="Path 43" d="M139.5,128A11.5,11.5,0,1,0,151,139.5,11.5,11.5,0,0,0,139.5,128Zm0,18.687a7.187,7.187,0,1,1,7.187-7.187A7.2,7.2,0,0,1,139.5,146.687Z" transform="translate(-128 -128)" fill="#ed1b24"/>
    </g>
  </g>
  <g id="Group_16" data-name="Group 16" transform="translate(33.83 9.105)">
    <g id="Group_15" data-name="Group 15">
      <circle id="Ellipse_277" data-name="Ellipse 277" cx="1.532" cy="1.532" r="1.532" fill="#ed1b24"/>
    </g>
  </g>
</svg>
